<svg width="215" height="32" viewBox="0 0 215 32" fill="none" xmlns="http://www.w3.org/2000/svg">
<path fill-rule="evenodd" clip-rule="evenodd" d="M81.0728 0C85.4941 0 89.2599 1.56444 92.3764 4.69333C95.5053 7.80985 97.0697 11.5757 97.0697 15.9969C97.0697 20.4182 95.5053 24.184 92.3764 27.3005C89.2599 30.4294 85.4941 31.9938 81.0728 31.9938C76.6516 31.9938 72.8858 30.4294 69.7693 27.3005C66.6404 24.184 65.0759 20.4182 65.0759 15.9969C65.0759 11.5757 66.6404 7.80985 69.7693 4.69333C72.8858 1.56444 76.6516 0 81.0728 0ZM81.0728 24.2829C83.2618 24.2829 85.1293 23.4729 86.6813 21.8466C88.2149 20.2388 88.9878 18.291 88.9878 15.9969C88.9878 13.7028 88.2211 11.7488 86.6813 10.1287C85.1293 8.52097 83.2618 7.7171 81.0728 7.7171C78.8839 7.7171 77.0164 8.52097 75.4643 10.1287C73.9308 11.7488 73.1579 13.709 73.1579 15.9969C73.1579 18.2848 73.9246 20.2388 75.4643 21.8466C77.0164 23.4667 78.8839 24.2829 81.0728 24.2829ZM64.3149 1.243C64.5746 1.243 64.7849 1.36049 64.9456 1.58928C65.1064 1.84899 65.125 2.13962 65.0136 2.46116L54.4274 30.0708C54.18 30.6644 53.7657 30.9736 53.1907 31.0045H46.9762C46.4135 30.9736 46.0053 30.6644 45.758 30.0708L35.685 3.82773C35.586 3.61131 35.4685 3.43817 35.3387 3.30831C35.351 3.30831 35.2026 3.19701 34.8811 2.98058C34.5905 2.77653 34.4482 2.51682 34.4482 2.19527C34.4482 1.93556 34.541 1.70677 34.7327 1.52126C34.9182 1.33575 35.147 1.23682 35.4067 1.23682H42.6477C43.0372 1.2801 43.3588 1.53981 43.6061 2.02213L49.0415 17.413L49.8701 20.0411C49.9443 20.1586 50.0123 20.2142 50.0865 20.2142C50.1731 20.2142 50.2473 20.1586 50.3029 20.0411L51.1315 17.413L56.5669 2.02213C56.8142 1.546 57.1296 1.2801 57.5253 1.23682H64.3273L64.3149 1.243ZM121.012 22.131C120.734 22.1186 120.487 22.199 120.27 22.3722V22.366C118.73 23.6398 116.962 24.2767 114.965 24.2767C112.671 24.2767 110.723 23.4729 109.115 21.8651C107.489 20.245 106.679 18.2848 106.679 15.9969C106.679 13.709 107.507 11.7364 109.115 10.1287C110.723 8.52097 112.677 7.7171 114.965 7.7171C116.968 7.7171 118.737 8.35401 120.27 9.62783C120.493 9.80097 120.734 9.88135 121.012 9.86899C121.303 9.85662 121.544 9.7515 121.73 9.56599L125.706 5.76309C125.922 5.55903 126.039 5.31169 126.052 5.02106C126.052 4.71807 125.953 4.45217 125.767 4.2172C122.682 1.40367 119.083 0 114.965 0C110.543 0 106.778 1.56444 103.661 4.69333C100.532 7.80985 98.9678 11.5757 98.9678 15.9969C98.9678 20.4182 100.532 24.1963 103.661 27.3252C106.778 30.4417 110.543 32 114.965 32C119.077 32 122.682 30.5963 125.767 27.7828C125.959 27.554 126.052 27.2819 126.052 26.9789C126.039 26.6883 125.922 26.441 125.706 26.2369L121.73 22.434C121.544 22.2485 121.303 22.1434 121.012 22.131ZM155.968 30.1203C156.067 30.38 156.048 30.5964 155.9 30.7696C155.758 30.9303 155.498 31.0107 155.139 31.0107H149.401C149.079 31.0107 148.844 30.9551 148.684 30.8376C148.511 30.7201 148.381 30.5346 148.294 30.2749L146.748 26.2123H136.094L134.548 30.2749C134.461 30.5346 134.332 30.7263 134.158 30.8376C133.998 30.9551 133.769 31.0107 133.466 31.0107H127.703C127.344 31.0107 127.084 30.9303 126.942 30.7696C126.8 30.5964 126.775 30.38 126.874 30.1203L136.286 5.79411C136.372 5.59005 136.428 5.37363 136.459 5.14484V4.90368C136.459 4.61305 136.403 4.32242 136.286 4.03179L136.261 4.00706C136.218 3.88957 136.162 3.77827 136.088 3.66078C136.044 3.60513 136.032 3.57421 136.044 3.57421L136.007 3.53067L136.007 3.53006C135.943 3.45615 135.875 3.37724 135.803 3.28976L135.779 3.26503L135.754 3.24029C135.655 3.14136 135.544 3.05479 135.426 2.98058L135.451 2.95585C135.16 2.77034 135.018 2.51682 135.018 2.19527C135.018 1.92319 135.111 1.6944 135.302 1.52126C135.488 1.33575 135.717 1.23682 135.976 1.23682H143.978C144.485 1.23682 144.837 1.45943 145.042 1.91083L155.956 30.1079L155.968 30.1203ZM144.009 19.7752C144.256 19.7752 144.38 19.6577 144.38 19.4289C144.38 19.3732 144.368 19.3114 144.337 19.2558L141.467 10.6915H141.399C141.318 10.9552 141.008 11.8841 140.477 13.4783L140.095 14.6243C139.488 16.4256 139.048 17.7275 138.777 18.5277L138.776 18.528C138.666 18.8539 138.584 19.0965 138.53 19.2558C138.518 19.3114 138.506 19.3732 138.506 19.4289C138.506 19.6639 138.623 19.7752 138.852 19.7752H144.003H144.009ZM184.945 30.0707C184.945 29.7368 184.802 29.4709 184.512 29.2854L184.518 29.273C184.4 29.1865 184.289 29.0999 184.19 29.0133C184.029 28.8402 183.893 28.6423 183.776 28.4259L178.841 19.0578C180.189 18.1797 181.253 17.0296 182.038 15.6259C182.83 14.1789 183.232 12.6145 183.232 10.9326C183.232 8.26744 182.292 5.9857 180.406 4.08734C178.507 2.18899 176.22 1.23671 173.536 1.23671H157.644C157.384 1.23671 157.156 1.33565 156.97 1.52116C156.778 1.70667 156.686 1.93546 156.686 2.19517C156.686 2.52908 156.828 2.79498 157.118 2.98048C157.217 3.06705 157.323 3.16599 157.421 3.26493C157.879 3.71014 158.114 4.26667 158.114 4.91594V29.879C158.114 30.1944 158.225 30.4665 158.442 30.6829C158.677 30.9117 158.949 31.0292 159.27 31.0292H164.706C165.021 31.0292 165.293 30.9179 165.51 30.6829C165.738 30.4665 165.856 30.2006 165.856 29.879V21.2282C165.856 21.0674 165.911 20.9314 166.029 20.8139C166.14 20.7088 166.276 20.6593 166.419 20.6593H171.112C171.353 20.6593 171.532 20.7706 171.631 20.9871L176.591 30.3799C176.795 30.8128 177.141 31.0292 177.636 31.0292H183.986C184.246 31.0292 184.475 30.9302 184.66 30.7447C184.852 30.5592 184.945 30.3304 184.945 30.0707ZM175.082 8.89816C175.459 9.27536 175.644 9.72676 175.644 10.2647V10.2709V11.6375C175.644 12.1693 175.459 12.6269 175.082 13.0041C174.692 13.3813 174.228 13.5668 173.69 13.5668H166.431C166.289 13.5668 166.159 13.5111 166.041 13.3936C165.924 13.2947 165.868 13.1648 165.868 13.0041V8.89816C165.868 8.73739 165.924 8.60135 166.041 8.48387C166.153 8.36638 166.289 8.31073 166.431 8.31073H173.69C174.228 8.31073 174.692 8.5086 175.082 8.89816ZM199.99 1.23682C204.281 1.23682 207.75 2.43025 210.403 4.82329C213.241 7.40184 214.663 11.0069 214.663 15.626V16.6277C214.663 21.2345 213.241 24.8333 210.403 27.4119C207.75 29.8173 204.281 31.0231 199.99 31.0231H188.816C188.494 31.0231 188.228 30.9056 188.012 30.6768C187.777 30.4604 187.666 30.2007 187.666 29.8915V4.89131C187.653 4.2544 187.418 3.70406 186.973 3.24029C186.874 3.14136 186.769 3.05479 186.67 2.98058C186.38 2.77653 186.237 2.51682 186.237 2.19527C186.237 1.93556 186.33 1.70677 186.522 1.52126C186.707 1.33575 186.936 1.23682 187.196 1.23682H199.99ZM206.748 14.9767C206.748 12.4971 206.074 10.7224 204.726 9.65266C203.607 8.78078 201.956 8.34793 199.767 8.34793H195.748C195.587 8.34793 195.457 8.40358 195.358 8.52107C195.241 8.62 195.185 8.75604 195.185 8.91063V23.3431C195.185 23.4853 195.241 23.6214 195.358 23.7327C195.457 23.8501 195.587 23.9058 195.748 23.9058H199.767C201.956 23.9058 203.607 23.4668 204.726 22.5825C206.074 21.5251 206.748 19.7566 206.748 17.277V14.9767ZM23.1376 1.58156C22.9214 1.34757 22.6498 1.23671 22.3351 1.23671H0.958454C0.698744 1.23671 0.469952 1.32947 0.284444 1.52116C0.0989372 1.70667 0 1.93546 0 2.19517C0 2.51671 0.142222 2.77643 0.43285 2.98048C0.531787 3.05469 0.636908 3.14126 0.735845 3.24019C1.18725 3.70396 1.41604 4.2543 1.42841 4.89121V29.8914C1.42841 30.1944 1.54589 30.4541 1.77469 30.6767C1.99111 30.9117 2.26319 31.023 2.57855 31.023H22.3289C22.6504 31.023 22.9163 30.9055 23.1328 30.6767C23.3677 30.4603 23.479 30.2006 23.479 29.8914V2.36213C23.479 2.06128 23.3632 1.80311 23.1376 1.58156Z" fill="white"/>
</svg>
