<svg width="57" height="56" viewBox="0 0 57 56" fill="none" xmlns="http://www.w3.org/2000/svg">
<path d="M0 11.2C0 5.01441 5.10395 0 11.4 0H45.6C51.896 0 57 5.01441 57 11.2V44.8C57 50.9856 51.896 56 45.6 56H11.4C5.10395 56 0 50.9856 0 44.8V11.2Z" fill="white"/>
<path d="M38.9994 14.8736C38.7999 14.6608 38.5491 14.56 38.2584 14.56H18.5535C18.3141 14.56 18.1032 14.644 17.9322 14.8176C17.7612 14.9856 17.67 15.1928 17.67 15.428C17.67 15.7192 17.8011 15.9544 18.069 16.1392C18.1602 16.2064 18.2571 16.2848 18.3483 16.3744C18.7644 16.7944 18.9753 17.2928 18.9867 17.8696V40.5104C18.9867 40.7848 19.095 41.02 19.3059 41.2216C19.5054 41.4344 19.7562 41.5352 20.0469 41.5352H38.2527C38.5491 41.5352 38.7942 41.4288 38.9937 41.2216C39.2103 41.0256 39.3129 40.7904 39.3129 40.5104V15.5792C39.3129 15.3048 39.2046 15.0696 38.9937 14.868L38.9994 14.8736Z" fill="#222222"/>
</svg>
